<svg aria-hidden="true" style="width:0;height:0;position:absolute;overflow:hidden" xmlns="http://www.w3.org/2000/svg"><defs><symbol id="icon-archive-in" viewBox="0 0 32 32"><path d="m28.941 7.056-3.999-3.999a1.326 1.326 0 0 0-.941-.391H7.998a1.32 1.32 0 0 0-.941.391L3.058 7.056a1.325 1.325 0 0 0-.392.942V25.333A2.67 2.67 0 0 0 5.333 28h21.333a2.67 2.67 0 0 0 2.667-2.667V7.997c0-.368-.15-.701-.392-.941zM8.552 5.333h14.896l1.333 1.333H7.218l1.333-1.333zM16 24l-6.667-6.667h4v-4h5.333v4h4L15.999 24z"/></symbol><symbol id="icon-archive-out" viewBox="0 0 32 32"><path d="m28.941 7.056-3.999-3.999a1.326 1.326 0 0 0-.941-.391H7.997c-.368 0-.7.149-.941.391L3.057 7.056c-.242.24-.392.573-.392.941v17.336A2.67 2.67 0 0 0 5.332 28h21.333a2.67 2.67 0 0 0 2.667-2.667V7.997c0-.368-.15-.701-.392-.941zM8.552 5.333h14.896l1.333 1.333H7.218l1.333-1.333zm10.115 13.334v4h-5.333v-4h-4L16.001 12l6.667 6.667h-4z"/></symbol><symbol id="icon-cart" viewBox="0 0 32 32"><path d="m6.229 6.933-.444-2.667H4.19a2.13 2.13 0 0 0-2.057-1.6C.956 2.666 0 3.623 0 4.799s.957 2.133 2.133 2.133c.991 0 1.819-.683 2.058-1.6h.69l.267 1.6h-.02l2.758 13.875c-1.315.1-2.41 1.113-2.539 2.386A2.674 2.674 0 0 0 8 26.132h1.067c0 1.765 1.435 3.2 3.2 3.2s3.2-1.435 3.2-3.2h5.867c0 1.765 1.435 3.2 3.2 3.2s3.2-1.435 3.2-3.2h2.133a.533.533 0 1 0 0-1.066h-2.32c-.441-1.241-1.623-2.133-3.013-2.133s-2.573.892-3.013 2.133h-6.24c-.441-1.241-1.623-2.133-3.013-2.133s-2.573.892-3.013 2.133H8.002a1.604 1.604 0 0 1-1.185-.528l-.001-.001a1.576 1.576 0 0 1-.406-1.242l-.001.007c.081-.805.825-1.435 1.692-1.435H29.34a2.664 2.664 0 0 0 2.66-2.66V6.933H6.229zM2.133 5.867a1.068 1.068 0 0 1 0-2.134 1.067 1.067 0 0 1 0 2.134z"/></symbol><symbol id="icon-delete" viewBox="0 0 32 32"><path d="M23.111 32H8.889a3.556 3.556 0 0 1-3.556-3.556v-16c0-.982.796-1.778 1.778-1.778h17.778c.982 0 1.778.796 1.778 1.778v16A3.556 3.556 0 0 1 23.111 32zm5.333-26.667c0 .982-.796 1.778-1.778 1.778H5.333a1.778 1.778 0 1 1 0-3.556h5.333V1.777c0-.982.796-1.778 1.778-1.778h7.111c.982 0 1.778.796 1.778 1.778v1.778h5.333c.982 0 1.778.796 1.778 1.778z"/></symbol><symbol id="icon-edit" viewBox="0 0 32 32"><path d="m2.797 23.923 19.81-19.811 5.281 5.281-19.811 19.81-5.28-5.28zM30.152 7.129l.754-.754C31.611 5.67 32 4.732 32 3.735s-.388-1.935-1.094-2.64S29.263 0 28.265 0s-1.935.389-2.641 1.094l-.754.754 5.281 5.281zM2.187 24.821.028 31.298a.533.533 0 0 0 .678.673l-.004.001 6.477-2.159-4.992-4.993zM23.362 3.358l.755-.755 5.281 5.281-.755.755-5.281-5.281z"/></symbol><symbol id="icon-light" viewBox="0 0 32 32"><path d="M27.23 11.246c0-6.397-5.376-11.571-11.839-11.23C9.537.356 4.906 5.19 4.769 11.044a11.5 11.5 0 0 0 2.996 7.757c3.12 3.342 2.721 7.214 2.721 7.214 0 .746.615 1.36 1.36 1.36h8.3c.746 0 1.36-.615 1.426-1.36 0 0-.458-3.774 2.656-7.142a11.183 11.183 0 0 0 3.002-7.627zM18.858 24.72h-5.717c-.137-2.793-1.36-5.514-3.336-7.62-1.498-1.635-2.243-3.741-2.243-5.919a8.544 8.544 0 0 1 8.032-8.438c4.899-.275 8.98 3.676 8.98 8.503a8.41 8.41 0 0 1-2.315 5.782c-2.041 2.178-3.264 4.899-3.401 7.692zm-.477 4.559h-4.834c-.746 0-1.36.615-1.36 1.36s.615 1.36 1.36 1.36h4.834c.746 0 1.36-.615 1.36-1.36s-.608-1.36-1.36-1.36z"/></symbol><symbol id="icon-quote" viewBox="0 0 32 32"><path d="M27.079 23.611c2.516-2.731 2.263-6.237 2.255-6.277V6.667c0-.736-.597-1.333-1.333-1.333h-8a2.67 2.67 0 0 0-2.667 2.667v9.333c0 .736.597 1.333 1.333 1.333h4.104a3.831 3.831 0 0 1-.581 1.877l.009-.016c-.677 1.068-1.953 1.797-3.795 2.165l-1.071.213v3.76h1.333c3.711 0 6.541-1.028 8.412-3.056zm-14.676 0c2.517-2.731 2.263-6.237 2.255-6.277V6.667c0-.736-.597-1.333-1.333-1.333h-8a2.67 2.67 0 0 0-2.667 2.667v9.333c0 .736.597 1.333 1.333 1.333h4.104a3.831 3.831 0 0 1-.581 1.877l.009-.016c-.677 1.068-1.953 1.797-3.795 2.165l-1.071.213v3.76H3.99c3.711 0 6.541-1.028 8.412-3.056z"/></symbol><symbol id="icon-thinking" viewBox="0 0 32 32"><path d="M13.87 10.133c1.536 0 2.786 1.25 2.786 2.786s-1.25 2.786-2.786 2.786-2.786-1.25-2.786-2.786 1.25-2.786 2.786-2.786z"/><path d="M3.539 26.273c.123 1.457 1.437 2.076 3.625 1.725 2.085-.335 3.132.62 3.4 1.77 0 0 .078.616.125 1.315a.981.981 0 0 0 .978.916h12.836a.98.98 0 0 0 .981-.981v-3.549c0-1.748.174-4.343 1.427-5.723 3.474-3.824 5.386-8.838 3.446-13.889C28.101 1.982 21.801-.645 15.82.133c-2.17.282-4.284 1.028-6.109 2.244-3.33 2.218-5.707 5.922-6.055 9.937-.102 1.178.457 2.604.176 3.725-.057.227-.365 1.285-2.671 3.558a.98.98 0 0 0 .47 1.655c1.027.234 1.734.374 1.841.435 0 0 .026 4.105.067 4.585zM19.306 9.405l.158-.384a3.369 3.369 0 0 1-.303-.718l-.006-.024-.382-.159a.358.358 0 0 1-.22-.33v-.878c0-.148.09-.275.218-.329l.002-.001.382-.159c.074-.261.178-.51.309-.742l-.158-.384a.356.356 0 0 1 .078-.389l.621-.621a.356.356 0 0 1 .392-.077l-.002-.001.384.158c.213-.122.459-.227.718-.303l.024-.006.159-.382a.358.358 0 0 1 .33-.22h.878c.148 0 .275.09.329.218l.001.002.159.382c.261.074.51.178.742.309l.384-.158a.356.356 0 0 1 .389.078l.621.621a.356.356 0 0 1 .077.392l.001-.002-.158.384c.122.213.227.459.303.718l.006.024.382.159c.13.055.22.182.22.33v.878c0 .148-.09.275-.218.329l-.002.001-.382.159a3.398 3.398 0 0 1-.317.759l.009-.017.158.384a.356.356 0 0 1-.078.389l-.621.621a.356.356 0 0 1-.392.077l.002.001-.384-.158a3.369 3.369 0 0 1-.718.303l-.024.006-.159.382a.358.358 0 0 1-.33.22h-.878a.357.357 0 0 1-.329-.218l-.001-.002-.159-.382a3.398 3.398 0 0 1-.759-.317l.017.009-.384.158a.356.356 0 0 1-.389-.078l-.621-.621a.356.356 0 0 1-.077-.392l-.001.002zM8.53 12.317c0-.203.123-.377.299-.451l.003-.001.523-.218c.111-.388.255-.726.435-1.041l-.012.023-.217-.526a.487.487 0 0 1 .107-.534l.852-.852a.488.488 0 0 1 .537-.106l-.003-.001.526.217c.292-.168.63-.312.985-.415l.033-.008.218-.524a.491.491 0 0 1 .453-.302h1.204c.203 0 .377.123.451.299l.001.003.218.523c.388.111.726.255 1.041.435l-.023-.012.526-.217a.487.487 0 0 1 .534.107l.852.852a.488.488 0 0 1 .106.537l.001-.003-.217.526c.168.292.312.63.415.985l.008.033.523.218c.179.076.302.25.302.453v1.204a.489.489 0 0 1-.299.451l-.003.001-.523.218a4.635 4.635 0 0 1-.435 1.041l.012-.023.217.526a.487.487 0 0 1-.107.534l-.852.852a.488.488 0 0 1-.537.106l.003.001-.526-.217c-.292.168-.63.312-.985.415l-.033.008-.218.523a.491.491 0 0 1-.453.302h-1.204a.489.489 0 0 1-.451-.299l-.001-.003-.218-.523a4.635 4.635 0 0 1-1.041-.435l.023.012-.526.217a.487.487 0 0 1-.534-.107l-.852-.852a.488.488 0 0 1-.106-.537l-.001.003.217-.526a4.528 4.528 0 0 1-.415-.985l-.008-.033-.523-.218a.491.491 0 0 1-.302-.453v-1.204z"/><path d="M22.449 5.318c1.121 0 2.032.912 2.032 2.032s-.912 2.032-2.032 2.032-2.032-.912-2.032-2.032c0-1.121.912-2.032 2.032-2.032z"/></symbol></defs></svg>